<svg width="88" height="28" viewBox="0 0 88 28" fill="none" xmlns="http://www.w3.org/2000/svg">
<path d="M10.913 23.941C7.03197 23.1309 3.97112 20.0718 3.16273 16.1908C1.88472 10.0657 6.11959 4.62498 11.8237 3.91051C12.5549 3.81826 13.1 3.19435 13.1 2.45807C13.1 1.57253 12.3201 0.89327 11.4413 1.00396C4.93047 1.82746 -0.090994 7.42922 0.00125065 14.1866C0.100204 21.2424 5.85795 27.0002 12.9138 27.0991C19.6712 27.1931 25.2729 22.1716 26.0964 15.6591C26.2071 14.7803 25.5295 14.0004 24.6423 14.0004C23.906 14.0004 23.2804 14.5472 23.1899 15.2767C22.4754 20.9808 17.0346 25.2173 10.9113 23.9393L10.913 23.941Z" fill="white"/>
<path d="M24.4914 12.3382C25.4357 12.3382 26.2005 11.5734 26.2005 10.6292V4.00938C26.2022 2.29196 24.8101 0.899902 23.0927 0.899902H16.4729C15.5286 0.899902 14.7638 1.66469 14.7638 2.60894C14.7638 3.36703 15.2636 4.03286 15.9898 4.24754C19.2821 5.22198 21.8784 7.81825 22.8528 11.1105C23.0675 11.8368 23.7334 12.3366 24.4914 12.3366V12.3382Z" fill="white"/>
<path d="M39.5565 4.99515C43.4391 4.92471 46.4564 7.87151 46.3859 11.5445C46.4564 15.2175 43.4391 18.1643 39.5565 18.0939C35.6503 18.0939 32.7505 15.2628 32.7505 11.5445C32.7505 7.82622 35.6503 4.99515 39.5565 4.99515ZM39.5565 7.12349C36.9837 7.12349 35.1589 8.90129 35.1589 11.5445C35.1589 14.1877 36.9837 15.9656 39.5565 15.9656C42.1293 15.9656 43.9775 14.1877 43.9775 11.5445C43.9775 8.90129 42.1527 7.12349 39.5565 7.12349Z" fill="white"/>
<path d="M48.0631 5.34558H50.4262V6.74938H50.4732C51.4325 5.64915 52.999 4.99505 54.8708 4.99505C58.4968 4.99505 61.2792 7.82444 61.2792 11.5444C61.3497 15.2174 58.4264 18.1642 54.8003 18.0938C53.0225 18.0938 51.3856 17.4145 50.5202 16.4099H50.4732V23.0062H48.0631V5.34558ZM54.6359 7.12339C52.2963 7.12339 50.4732 8.73683 50.4732 10.7025V12.3864C50.4732 14.352 52.251 15.9655 54.5672 15.9655C57.093 15.9655 58.8708 14.1876 58.8708 11.5444C58.8708 8.90119 57.1635 7.12339 54.6376 7.12339H54.6359Z" fill="white"/>
<path d="M68.9707 4.99505C72.7594 4.99505 75.5201 7.80264 75.5201 11.5444V12.3629H64.761C64.7845 13.4631 65.2054 14.3503 66.0239 15.0296C66.8424 15.7088 67.8487 16.0594 69.0646 16.0594C70.819 16.0594 72.2462 15.2644 73.3448 13.6979L75.0756 15.0547C73.6953 17.0892 71.6844 18.0955 69.0646 18.0955C64.9941 18.0955 62.3509 15.4992 62.3509 11.5931C62.3509 7.68692 65.1115 4.99673 68.9707 4.99673V4.99505ZM73.1117 10.5146C72.9708 8.54898 71.146 7.02946 68.9942 7.02946C66.678 7.02946 64.9472 8.55066 64.808 10.5146H73.1117Z" fill="white"/>
<path d="M82.0829 10.4677C84.6088 10.0702 85.4507 9.62573 85.4507 8.78379C85.4507 7.73052 84.3287 7.05294 82.6196 7.05294C80.654 7.05294 79.2753 8.08273 78.9231 9.76661L76.6304 9.2752C76.8636 7.98881 77.5193 6.93554 78.5961 6.16404C79.6963 5.39254 81.028 4.99505 82.5961 4.99505C85.8935 4.99505 88 6.65545 88 9.29868V17.7433H85.7308V16.2455H85.6838C84.8654 17.3911 83.158 18.0938 81.2158 18.0938C78.3848 18.0938 76.6304 16.6665 76.6304 14.3973C76.6304 12.1281 78.1516 11.053 82.0813 10.4677H82.0829ZM85.6385 11.053H85.5916C85.288 11.6149 84.4696 11.9419 82.5039 12.2924C79.9781 12.7369 78.9952 13.2987 78.9952 14.3269C78.9952 15.4724 79.8137 15.9873 81.662 15.9873C83.7668 15.9873 85.6385 14.7478 85.6385 13.3205V11.0513V11.053Z" fill="white"/>
</svg>
