<svg width="350" height="110" viewBox="0 0 350 110" fill="none" xmlns="http://www.w3.org/2000/svg">
<path d="M64.2125 32.993C61.7699 30.6352 60.5485 27.7036 60.5485 24.198C60.5485 20.6924 61.7699 17.7607 64.2125 15.4029C66.6551 13.0142 69.677 11.8198 73.2783 11.8198C76.8796 11.8198 79.9015 13.0142 82.3442 15.4029C84.7868 17.7607 86.0081 20.6924 86.0081 24.198C86.0081 27.7036 84.7868 30.6352 82.3442 32.993C79.9015 35.3507 76.8796 36.5296 73.2783 36.5296C69.677 36.5296 66.6551 35.3507 64.2125 32.993ZM67.8294 18.6138C66.3576 20.1029 65.6217 21.9643 65.6217 24.198C65.6217 26.4316 66.3576 28.293 67.8294 29.7821C69.3012 31.2712 71.1175 32.0158 73.2783 32.0158C75.4704 32.0158 77.2867 31.2712 78.7272 29.7821C80.199 28.293 80.9349 26.4316 80.9349 24.198C80.9349 21.9333 80.199 20.0564 78.7272 18.5673C77.2867 17.0782 75.4704 16.3336 73.2783 16.3336C71.1175 16.3336 69.3012 17.0937 67.8294 18.6138Z" fill="#FFFFFF"/>
<path d="M102.454 11.8198C105.805 11.8198 108.608 13.0142 110.862 15.4029C113.148 17.7607 114.291 20.6924 114.291 24.198C114.291 27.7036 113.148 30.6352 110.862 32.993C108.608 35.3507 105.805 36.5296 102.454 36.5296C98.8843 36.5296 96.0345 35.1956 93.9051 32.5276V45.3712H88.9729V12.2851H93.9051V15.8217C96.0345 13.1538 98.8843 11.8198 102.454 11.8198ZM101.562 32.0158C103.722 32.0158 105.523 31.2712 106.964 29.7821C108.435 28.293 109.171 26.4316 109.171 24.198C109.171 21.9333 108.435 20.0564 106.964 18.5673C105.523 17.0782 103.722 16.3336 101.562 16.3336C99.3696 16.3336 97.5377 17.0782 96.0659 18.5673C94.6253 20.0564 93.9051 21.9333 93.9051 24.198C93.9051 26.4316 94.6253 28.293 96.0659 29.7821C97.5377 31.2712 99.3696 32.0158 101.562 32.0158Z" fill="#FFFFFF"/>
<path d="M128.564 11.8198C132.415 11.8198 135.547 13.1848 137.958 15.9148C140.37 18.6448 141.356 21.9488 140.918 25.8267H121.048C121.392 27.7501 122.285 29.3167 123.725 30.5266C125.166 31.7055 126.904 32.295 128.939 32.295C130.505 32.295 131.899 31.9227 133.12 31.1781C134.373 30.4026 135.343 29.3633 136.032 28.0603L140.166 29.8752C139.101 31.8917 137.583 33.5049 135.61 34.7148C133.637 35.9246 131.366 36.5296 128.799 36.5296C125.197 36.5296 122.175 35.3507 119.733 32.993C117.29 30.6352 116.069 27.7036 116.069 24.198C116.069 20.6924 117.259 17.7607 119.639 15.4029C122.05 13.0142 125.025 11.8198 128.564 11.8198ZM128.564 16.0544C126.747 16.0544 125.166 16.6128 123.819 17.7297C122.504 18.8155 121.627 20.2425 121.189 22.0108H135.938C135.531 20.2425 134.655 18.8155 133.308 17.7297C131.993 16.6128 130.411 16.0544 128.564 16.0544Z" fill="#FFFFFF"/>
<path d="M153.899 11.8198C156.78 11.8198 159.128 12.5643 160.945 14.0534C162.761 15.5425 163.669 17.6831 163.669 20.4752V36.0643H158.737V32.5276C156.764 35.1956 153.977 36.5296 150.376 36.5296C148.09 36.5296 146.226 35.9246 144.786 34.7148C143.345 33.5049 142.625 31.8917 142.625 29.8752C142.625 27.5484 143.455 25.8111 145.115 24.6633C146.774 23.4844 148.888 22.7554 151.456 22.4762L156.107 22.0108C157.86 21.8557 158.737 21.0801 158.737 19.6841C158.737 18.5362 158.283 17.6211 157.375 16.9386C156.498 16.2561 155.339 15.9148 153.899 15.9148C152.427 15.9148 151.174 16.2871 150.141 17.0316C149.139 17.7762 148.497 18.862 148.215 20.289L143.33 19.1257C143.768 16.892 144.943 15.1237 146.853 13.8208C148.763 12.4868 151.112 11.8198 153.899 11.8198ZM151.456 32.5742C153.492 32.5742 155.214 31.9072 156.623 30.5732C158.032 29.2082 158.737 27.626 158.737 25.8267V24.896C158.33 25.2682 157.422 25.5319 156.013 25.6871L151.456 26.2455C150.266 26.4006 149.311 26.7574 148.591 27.3158C147.902 27.8432 147.557 28.5722 147.557 29.5029C147.557 30.4336 147.902 31.1781 148.591 31.7365C149.311 32.295 150.266 32.5742 151.456 32.5742Z" fill="#FFFFFF"/>
<path d="M20.1251 41.9257C12.968 40.4458 7.32334 34.857 5.83251 27.7667C3.47569 16.5767 11.2854 6.63697 21.8046 5.33166C23.1531 5.16313 24.1583 4.02328 24.1583 2.67817C24.1583 1.06034 22.7201 -0.180594 21.0994 0.0216356C9.09249 1.52607 -0.167806 11.7601 0.00230639 24.1051C0.184791 36.9959 10.8029 47.5144 23.815 47.6955C36.2765 47.867 46.6069 38.6931 48.1257 26.7954C48.3299 25.1898 47.0801 23.7651 45.4441 23.7651C44.0864 23.7651 42.9324 24.7639 42.7657 26.0968C41.4479 36.5177 31.4144 44.2575 20.122 41.9229L20.1251 41.9257Z" fill="#FFFFFF"/>
<path d="M45.0072 20.836C46.7425 20.836 48.1476 19.4519 48.1476 17.743V5.76299C48.1508 2.65489 45.5926 0.135652 42.4365 0.135652H30.2717C28.5364 0.135652 27.131 1.51972 27.131 3.22854C27.131 4.60048 28.0495 5.80546 29.384 6.19396C35.4342 7.95746 40.2053 12.656 41.9959 18.6141C42.3904 19.9284 43.6141 20.836 45.0072 20.836Z" fill="#FFFFFF"/>
<path d="M88.9893 79.7303V65.4677H93.8994V100.072H88.9893V96.5181C86.8694 99.1991 84.0324 100.54 80.4785 100.54C77.1428 100.54 74.337 99.355 72.0612 96.9857C69.8166 94.6164 68.6943 91.6703 68.6943 88.1476C68.6943 84.6248 69.8166 81.6787 72.0612 79.3094C74.337 76.9089 77.1428 75.7087 80.4785 75.7087C84.0324 75.7087 86.8694 77.0492 88.9893 79.7303ZM81.367 96.0037C83.5492 96.0037 85.3574 95.2555 86.7914 93.7591C88.2567 92.2627 88.9893 90.3922 88.9893 88.1476C88.9893 85.8718 88.2567 83.9857 86.7914 82.4893C85.3574 80.9929 83.5492 80.2447 81.367 80.2447C79.2159 80.2447 77.4077 81.0085 75.9425 82.536C74.4773 84.0324 73.7447 85.9029 73.7447 88.1476C73.7447 90.3922 74.4773 92.2627 75.9425 93.7591C77.4077 95.2555 79.2159 96.0037 81.367 96.0037Z" fill="#FFFFFF"/>
<path d="M109.271 75.7087C113.106 75.7087 116.223 77.0804 118.624 79.8238C121.024 82.5672 122.006 85.8874 121.57 89.7842H101.789C102.132 91.7171 103.021 93.2914 104.455 94.5073C105.889 95.6919 107.619 96.2842 109.645 96.2842C111.204 96.2842 112.591 95.9101 113.807 95.1619C115.054 94.3826 116.021 93.3382 116.706 92.0289L120.821 93.8526C119.762 95.879 118.25 97.5001 116.286 98.7159C114.321 99.9317 112.061 100.54 109.505 100.54C105.92 100.54 102.911 99.355 100.48 96.9857C98.0481 94.6164 96.8322 91.6703 96.8322 88.1476C96.8322 84.6248 98.0169 81.6787 100.386 79.3094C102.787 76.9089 105.748 75.7087 109.271 75.7087ZM109.271 79.9641C107.463 79.9641 105.889 80.5252 104.548 81.6475C103.239 82.7387 102.366 84.1727 101.929 85.9497H116.613C116.208 84.1727 115.335 82.7387 113.994 81.6475C112.685 80.5252 111.11 79.9641 109.271 79.9641Z" fill="#FFFFFF"/>
<path d="M123.27 93.7591L128.18 92.7303C128.616 95.2866 130.362 96.5648 133.417 96.5648C134.976 96.5648 136.223 96.2687 137.158 95.6763C138.125 95.0528 138.608 94.2735 138.608 93.3382C138.608 92.3406 138.109 91.5924 137.111 91.0936C136.114 90.5636 134.898 90.1895 133.464 89.9713C132.03 89.7219 130.58 89.4257 129.115 89.0828C127.681 88.7399 126.465 88.0696 125.467 87.072C124.47 86.0432 123.971 84.6715 123.971 82.9569C123.971 80.8682 124.86 79.138 126.636 77.7663C128.445 76.3945 130.705 75.7087 133.417 75.7087C136.129 75.7087 138.343 76.3166 140.057 77.5324C141.803 78.7483 142.848 80.4005 143.19 82.4893L138.28 83.5181C137.906 80.9617 136.285 79.6835 133.417 79.6835C132.108 79.6835 131.032 79.9641 130.19 80.5252C129.349 81.0864 128.928 81.819 128.928 82.7231C128.928 83.5336 129.286 84.1883 130.003 84.6871C130.72 85.1859 131.624 85.5133 132.716 85.6691C133.807 85.825 134.976 86.0588 136.223 86.3706C137.501 86.6823 138.686 87.0408 139.777 87.4461C140.868 87.8202 141.772 88.5061 142.489 89.5037C143.206 90.5013 143.565 91.7483 143.565 93.2447C143.565 95.3334 142.583 97.0792 140.619 98.4821C138.686 99.8538 136.285 100.54 133.417 100.54C130.58 100.54 128.273 99.9317 126.496 98.7159C124.719 97.5001 123.644 95.8478 123.27 93.7591Z" fill="#FFFFFF"/>
<path d="M146.332 71.4533C145.74 70.861 145.444 70.1439 145.444 69.3022C145.444 68.4605 145.74 67.7435 146.332 67.1511C146.956 66.5588 147.688 66.2626 148.53 66.2626C149.372 66.2626 150.089 66.5588 150.681 67.1511C151.274 67.7435 151.57 68.4605 151.57 69.3022C151.57 70.1439 151.274 70.861 150.681 71.4533C150.089 72.0456 149.372 72.3418 148.53 72.3418C147.688 72.3418 146.956 72.0456 146.332 71.4533ZM150.962 100.072H146.052V76.1763H150.962V100.072Z" fill="#FFFFFF"/>
<path d="M174.187 79.6835V76.1763H179.097V97.5001C179.097 101.023 177.881 103.969 175.449 106.338C173.018 108.708 170.009 109.892 166.424 109.892C163.899 109.892 161.639 109.284 159.644 108.068C157.68 106.853 156.199 105.216 155.201 103.158L159.644 100.961C160.298 102.332 161.202 103.408 162.356 104.187C163.54 104.998 164.897 105.403 166.424 105.403C168.606 105.403 170.446 104.639 171.942 103.112C173.439 101.615 174.187 99.7447 174.187 97.5001V96.0972C172.067 98.7159 169.23 100.025 165.676 100.025C162.34 100.025 159.534 98.8718 157.259 96.5648C155.014 94.2267 153.892 91.3274 153.892 87.867C153.892 84.4377 155.014 81.554 157.259 79.2159C159.534 76.8778 162.34 75.7087 165.676 75.7087C169.261 75.7087 172.098 77.0336 174.187 79.6835ZM166.564 95.536C168.747 95.536 170.555 94.8034 171.989 93.3382C173.454 91.873 174.187 90.0492 174.187 87.867C174.187 85.6847 173.454 83.8766 171.989 82.4425C170.555 80.9773 168.747 80.2447 166.564 80.2447C164.413 80.2447 162.605 80.9773 161.14 82.4425C159.675 83.8766 158.942 85.6847 158.942 87.867C158.942 90.0492 159.675 91.873 161.14 93.3382C162.605 94.8034 164.413 95.536 166.564 95.536Z" fill="#FFFFFF"/>
<path d="M195.731 75.7087C198.63 75.7087 201 76.6595 202.839 78.5612C204.71 80.4629 205.645 82.879 205.645 85.8094V100.072H200.735V86.5576C200.735 84.7183 200.127 83.2063 198.911 82.0216C197.695 80.8058 196.168 80.1979 194.328 80.1979C192.489 80.1979 190.946 80.8058 189.699 82.0216C188.483 83.2063 187.875 84.7183 187.875 86.5576V100.072H182.965V76.1763H187.875V79.59C189.777 77.0025 192.395 75.7087 195.731 75.7087Z" fill="#FFFFFF"/>
<path d="M208.34 94.0864L210.912 93.572C211.192 95.0684 211.909 96.2219 213.063 97.0325C214.248 97.843 215.791 98.2483 217.692 98.2483C219.656 98.2483 221.262 97.843 222.509 97.0325C223.787 96.2219 224.426 95.1619 224.426 93.8526C224.426 92.5432 223.896 91.5456 222.836 90.8598C221.776 90.1739 220.498 89.6907 219.002 89.4101C217.505 89.1296 215.993 88.8334 214.466 88.5217C212.969 88.1787 211.691 87.5396 210.631 86.6044C209.571 85.6691 209.041 84.3754 209.041 82.7231C209.041 80.7591 209.836 79.1691 211.426 77.9533C213.047 76.7063 215.136 76.0828 217.692 76.0828C220.155 76.0828 222.15 76.6595 223.678 77.813C225.237 78.9665 226.203 80.5408 226.577 82.536L223.959 83.0972C223.678 81.6008 222.992 80.4473 221.901 79.6368C220.841 78.795 219.438 78.3742 217.692 78.3742C215.915 78.3742 214.45 78.7639 213.297 79.5432C212.174 80.3226 211.613 81.3514 211.613 82.6296C211.613 83.8142 212.143 84.7339 213.203 85.3886C214.263 86.0121 215.541 86.4641 217.038 86.7447C218.565 86.9941 220.077 87.2902 221.574 87.6332C223.101 87.9761 224.395 88.6464 225.455 89.644C226.515 90.6416 227.045 92.0133 227.045 93.7591C227.045 95.7543 226.156 97.391 224.38 98.6691C222.634 99.9161 220.405 100.54 217.692 100.54C215.105 100.54 212.985 99.9629 211.333 98.8094C209.68 97.6248 208.683 96.0504 208.34 94.0864Z" fill="#FFFFFF"/>
<path d="M238.271 97.5001L247.155 76.5504H249.821L235.512 109.425H232.846L236.821 100.259L226.627 76.5504H229.432L238.271 97.5001Z" fill="#FFFFFF"/>
<path d="M249.546 94.0864L252.118 93.572C252.398 95.0684 253.115 96.2219 254.269 97.0325C255.454 97.843 256.997 98.2483 258.898 98.2483C260.862 98.2483 262.468 97.843 263.715 97.0325C264.993 96.2219 265.632 95.1619 265.632 93.8526C265.632 92.5432 265.102 91.5456 264.042 90.8598C262.982 90.1739 261.704 89.6907 260.208 89.4101C258.711 89.1296 257.199 88.8334 255.672 88.5217C254.175 88.1787 252.897 87.5396 251.837 86.6044C250.777 85.6691 250.247 84.3754 250.247 82.7231C250.247 80.7591 251.042 79.1691 252.632 77.9533C254.253 76.7063 256.342 76.0828 258.898 76.0828C261.361 76.0828 263.356 76.6595 264.884 77.813C266.443 78.9665 267.409 80.5408 267.783 82.536L265.165 83.0972C264.884 81.6008 264.198 80.4473 263.107 79.6368C262.047 78.795 260.644 78.3742 258.898 78.3742C257.121 78.3742 255.656 78.7639 254.503 79.5432C253.38 80.3226 252.819 81.3514 252.819 82.6296C252.819 83.8142 253.349 84.7339 254.409 85.3886C255.469 86.0121 256.747 86.4641 258.244 86.7447C259.771 86.9941 261.283 87.2902 262.78 87.6332C264.307 87.9761 265.601 88.6464 266.661 89.644C267.721 90.6416 268.251 92.0133 268.251 93.7591C268.251 95.7543 267.362 97.391 265.585 98.6691C263.84 99.9161 261.611 100.54 258.898 100.54C256.311 100.54 254.191 99.9629 252.539 98.8094C250.886 97.6248 249.889 96.0504 249.546 94.0864Z" fill="#FFFFFF"/>
<path d="M274.285 78.9353H268.813V76.5504H274.285V67.6655L276.857 66.8706V76.5504H284.339V78.9353H276.857V92.3562C276.857 94.289 277.262 95.6607 278.072 96.4713C278.883 97.2819 280.239 97.6871 282.141 97.6871H284.339V100.072H282.141C279.46 100.072 277.48 99.4485 276.202 98.2015C274.924 96.9233 274.285 94.9593 274.285 92.3094V78.9353Z" fill="#FFFFFF"/>
<path d="M298.077 76.0828C301.6 76.0828 304.515 77.3142 306.822 79.777C309.16 82.2399 310.251 85.3262 310.095 89.036H288.584C288.771 91.6547 289.784 93.837 291.624 95.5828C293.463 97.3286 295.708 98.2015 298.358 98.2015C300.353 98.2015 302.13 97.7027 303.689 96.7051C305.247 95.6763 306.416 94.3046 307.196 92.59L309.534 93.4317C308.567 95.5828 307.087 97.313 305.091 98.6224C303.127 99.9006 300.867 100.54 298.311 100.54C294.819 100.54 291.904 99.3706 289.566 97.0325C287.228 94.6943 286.059 91.795 286.059 88.3346C286.059 84.843 287.197 81.9281 289.473 79.59C291.78 77.2519 294.648 76.0828 298.077 76.0828ZM298.077 78.4677C295.645 78.4677 293.557 79.2471 291.811 80.8058C290.065 82.3646 289.021 84.3598 288.678 86.7914H307.476C307.165 84.4221 306.136 82.4425 304.39 80.8526C302.644 79.2627 300.54 78.4677 298.077 78.4677Z" fill="#FFFFFF"/>
<path d="M340.507 76.0828C343.219 76.0828 345.48 77.0648 347.288 79.0288C349.096 80.9929 350 83.4401 350 86.3706V100.072H347.428V86.5576C347.428 84.2818 346.742 82.3802 345.37 80.8526C344.03 79.2938 342.347 78.5144 340.32 78.5144C338.294 78.5144 336.595 79.2938 335.223 80.8526C333.882 82.3802 333.212 84.2818 333.212 86.5576V100.072H330.64V86.5576C330.64 84.2507 329.954 82.3334 328.583 80.8058C327.242 79.2782 325.559 78.5144 323.532 78.5144C321.506 78.5144 319.823 79.2938 318.482 80.8526C317.141 82.3802 316.471 84.2818 316.471 86.5576V100.072H313.899V76.5504H316.471V80.1979C318.279 77.4545 320.742 76.0828 323.86 76.0828C325.73 76.0828 327.414 76.5972 328.91 77.626C330.406 78.6236 331.513 79.9797 332.23 81.6943C333.01 79.9797 334.116 78.6236 335.55 77.626C336.984 76.5972 338.637 76.0828 340.507 76.0828Z" fill="#FFFFFF"/>
</svg>
